<?xml version="1.0" encoding="UTF-8"?>
<svg id="Layer_1" xmlns="http://www.w3.org/2000/svg" version="1.1" viewBox="0 0 20.7282372 20.0375004">
  <!-- Generator: Adobe Illustrator 29.2.1, SVG Export Plug-In . SVG Version: 2.1.0 Build 116)  -->
  <g id="Layer_11" data-name="Layer_1">
    <path d="M0,18.8857269V1.1513641c0-.1523148.0290707-.2993051.0876216-.4405647.0585509-.1408504.1416685-.2657302.2497625-.3734148.1076845-.1080939.2325657-.1912128.3734153-.2497627C.8520586.0290704.9990499,0,1.1517735,0h18.4250984C19.729187,0,19.8761768.0290704,20.017437.0876219c.1408501.0585499.2653217.1416688.373415.2497627.1080933.1076847.1912136.2325645.2497635.3734148.0585518.1412596.0876217.2882499.0876217.4405647v17.7343609c0,.1527233-.0290699.299715-.0876217.4405651-.0585499.1412582-.1416683.2657318-.2497635.3738251-.1080933.1076851-.2325649.1912117-.373415.2493534-.1412601.0585499-.28825.0876217-.4405651.0880318H1.1517735c-.1527236-.0004101-.2997149-.02948-.440974-.0880318-.1408496-.0581417-.2657308-.1416683-.3734153-.2493534-.1080939-.1080933-.1912116-.2325649-.2497625-.3738251C.0290708,19.1854401,0,19.0384483,0,18.885725" fill="#2d2b55"/>
  </g>
  <text transform="translate(.8814669 13.6791992)" fill="#fff" font-family="Hack-Regular, Hack" font-size="10.5"><tspan x="0" y="0">\Tl</tspan></text>
</svg>